<svg width="200" height="200" viewBox="0 0 200 200" fill="none" xmlns="http://www.w3.org/2000/svg">
<g id="Frame">
<path id="Vector" d="M135.968 77.4574V78.6202C136.045 78.1861 136.045 77.876 135.968 77.4574Z" fill="url(#paint0_linear_7404_53467)" stroke="black" stroke-opacity="0.5" stroke-width="1.48837" stroke-linecap="round" stroke-linejoin="round"/>
<path id="Vector_2" d="M160.06 89.8138C159.952 90.2479 159.828 90.6819 159.673 91.116L147.719 84.2169L139.983 88.6976C139.177 88.2789 138.355 87.8757 137.518 87.5036V67.2557L129.068 62.3718L123.068 65.8293C118.34 64.0154 113.471 63.2245 108.51 63.4416C103.533 63.6741 99.4093 64.7284 96.1225 66.6199C93.1303 68.3408 91.3008 70.2168 90.6186 72.2168C90.4481 72.7284 90.3551 73.2557 90.324 73.7983V80.1704C85.6419 80.558 81.0217 81.271 76.4326 82.3098C75.8899 82.4338 75.3473 82.558 74.8047 82.7131L67.5644 80.8834C65.8744 82.6819 64.7116 84.4338 64.076 86.1703C63.0527 86.5889 62.045 87.0231 61.0527 87.4883V78.5113L60.4171 78.1393L56.138 75.6741V59.0385C62.138 55.5811 68.8977 53.0075 76.4326 51.3021C83.9675 49.5967 91.6109 48.7595 99.3938 48.775C107.177 48.7905 114.851 49.6587 122.402 51.3796C129.952 53.116 136.743 55.7207 142.774 59.209C150.34 63.5656 155.518 68.5889 158.309 74.2633C160.898 79.5036 161.487 84.682 160.06 89.8138Z" fill="url(#paint1_linear_7404_53467)" stroke="black" stroke-opacity="0.5" stroke-width="1.48837" stroke-linecap="round" stroke-linejoin="round"/>
<path id="Vector_3" d="M135.953 77.2863V79.2088C135.767 81.0382 134.945 82.7437 133.519 84.3251L122.681 81.6739C123.875 80.232 124.371 78.7437 124.154 77.1933C124.015 76.108 123.286 75.0538 121.999 73.9995C121.441 73.5344 120.759 73.0848 119.984 72.6351C117.162 71.0072 114.418 70.108 111.72 69.953C109.038 69.7824 106.651 70.2941 104.573 71.5034C104.278 71.6739 104.03 71.8444 103.798 72.015C102.325 73.1158 101.875 74.4336 102.433 75.9375C102.805 76.9452 103.612 78.2786 104.836 79.9375C105.736 81.1623 106.867 82.5731 108.247 84.1545C111.255 87.8289 112.759 90.8832 112.774 93.3793V93.4103C112.774 93.7979 112.743 94.1545 112.666 94.5111C112.635 94.6972 112.588 94.8832 112.526 95.0693C111.767 97.4724 110.03 99.5809 107.317 101.364C106.96 101.596 106.573 101.829 106.185 102.062C105.209 102.62 104.216 103.116 103.209 103.534C101.798 104.124 100.356 104.589 98.8674 104.899C96.2938 105.457 93.7357 105.705 91.162 105.658C90.8829 105.658 90.6194 105.643 90.3403 105.612C88.0612 105.534 85.7822 105.224 83.5186 104.697C81.8752 104.325 80.2474 103.875 78.6505 103.333C77.7978 103.069 76.945 102.759 76.1078 102.434L70.1078 105.891L63.5186 102.077L61.6581 101.007L63.5186 99.9375L67.8909 97.4103C64.9916 94.7282 63.5341 92.015 63.5186 89.2708C63.5186 88.2476 63.7046 87.2088 64.0767 86.17C64.7124 84.4336 65.8752 82.6817 67.5651 80.8832L74.8054 82.7127L78.6505 83.6739C76.3405 86.1235 75.3946 88.4181 75.7977 90.5576C76.1078 92.1545 77.0691 93.5964 78.6505 94.8522C79.1622 95.2708 79.7512 95.6739 80.4023 96.046C83.0535 97.5809 85.9527 98.5266 89.0845 98.9142C89.5031 98.9607 89.9219 98.9917 90.325 99.0072C91.8754 99.0693 93.3636 98.8987 94.7744 98.4646C94.7899 98.4646 94.8054 98.4491 94.8054 98.4491C95.8132 98.1545 96.7901 97.7359 97.7358 97.1933C98.2474 96.8987 98.6814 96.5886 99.0535 96.2631C100.387 95.1158 100.836 93.7669 100.418 92.232C99.8907 90.2631 97.9992 87.2863 94.7744 83.2863C93.8287 82.139 93.038 81.0538 92.3868 80.015C91.0225 77.7979 90.325 75.8134 90.325 74.0615V73.7979C90.356 73.2553 90.449 72.7282 90.6195 72.2165C91.3017 70.2165 93.131 68.3406 96.1233 66.6196C99.4101 64.7282 103.534 63.6739 108.511 63.4414C113.472 63.2243 118.34 64.015 123.069 65.8289L129.069 62.3716L137.519 67.2553L131.519 70.7127C134.185 72.5266 135.658 74.7127 135.953 77.2863Z" fill="url(#paint2_linear_7404_53467)" stroke="black" stroke-opacity="0.5" stroke-width="1.48837" stroke-linecap="round" stroke-linejoin="round"/>
<path id="Vector_4" d="M133.519 84.3255V113.736C132.651 114.062 131.783 114.387 130.884 114.682L122.682 112.682V81.6743L133.519 84.3255Z" fill="url(#paint3_linear_7404_53467)" stroke="black" stroke-opacity="0.5" stroke-width="1.48837" stroke-linecap="round" stroke-linejoin="round"/>
<path id="Vector_5" d="M76.108 102.434V116.713C74.046 116.232 72.046 115.674 70.108 115.038V105.891L76.108 102.434Z" fill="url(#paint4_linear_7404_53467)" stroke="black" stroke-opacity="0.5" stroke-width="1.48837" stroke-linecap="round" stroke-linejoin="round"/>
<path id="Vector_6" d="M51.4566 84.0462V105.876C49.0845 104.139 47.0225 102.325 45.3016 100.418C43.4411 98.3873 41.9682 96.2477 40.8675 93.9997C40.3248 92.8989 39.8597 91.7826 39.5031 90.6819V77.147L46.4799 81.178L49.4256 82.8679L51.4566 84.0462Z" fill="url(#paint5_linear_7404_53467)" stroke="black" stroke-opacity="0.5" stroke-width="1.48837" stroke-linecap="round" stroke-linejoin="round"/>
<path id="Vector_7" d="M135.968 77.4572C135.968 77.4572 135.968 77.3486 135.968 77.2866V78.62C136.045 78.1858 136.045 77.8758 135.968 77.4572ZM174.402 82.7595V86.2479C174.479 85.0851 174.495 83.9223 174.402 82.7595ZM135.968 77.4572C135.968 77.4572 135.968 77.3486 135.968 77.2866V78.62C136.045 78.1858 136.045 77.8758 135.968 77.4572ZM135.968 77.4572C135.968 77.4572 135.968 77.3486 135.968 77.2866V78.62C136.045 78.1858 136.045 77.8758 135.968 77.4572ZM135.968 77.4572C135.968 77.4572 135.968 77.3486 135.968 77.2866V78.62C136.045 78.1858 136.045 77.8758 135.968 77.4572Z" fill="url(#paint6_linear_7404_53467)" stroke="black" stroke-opacity="0.5" stroke-width="1.48837" stroke-linecap="round" stroke-linejoin="round"/>
<path id="Vector_8" d="M195.874 89.8602L174.402 102.263L171.735 103.814L167.099 106.48L153.891 98.8679L138.123 89.7671L139.984 88.6974L147.72 84.2167L159.673 91.116C159.828 90.6819 159.952 90.2477 160.06 89.8136C161.487 84.6819 160.898 79.5036 158.309 74.2633C155.518 68.5888 150.34 63.5656 142.774 59.209C136.743 55.7206 129.953 53.116 122.402 51.3795C114.852 49.6585 107.178 48.7903 99.3946 48.7748C91.6116 48.7593 83.9682 49.5965 76.4333 51.302C68.8985 53.0074 62.1388 55.5811 56.1388 59.0384L46.4799 53.4726C53.7512 49.271 61.9837 46.1236 71.162 44.0306C80.3248 41.9376 89.7357 40.8989 99.3636 40.9144C108.976 40.9454 118.387 42.0151 127.596 44.1392C136.79 46.2632 145.054 49.426 152.371 53.6586C161.378 58.8679 167.626 64.8214 171.115 71.5501C173.053 75.2865 174.154 79.0229 174.402 82.7594V86.2478C174.262 88.0617 173.921 89.8912 173.394 91.7051L174.402 91.116L186.231 84.2943L195.874 89.8602Z" fill="url(#paint7_linear_7404_53467)" stroke="black" stroke-opacity="0.5" stroke-width="1.48837" stroke-linecap="round" stroke-linejoin="round"/>
<path id="Vector_9" d="M195.876 89.86V120.868L167.101 137.488V106.48L171.736 103.813L174.403 102.263L195.876 89.86Z" fill="url(#paint8_linear_7404_53467)" stroke="black" stroke-opacity="0.5" stroke-width="1.48837" stroke-linecap="round" stroke-linejoin="round"/>
<path id="Vector_10" d="M152.698 114.79V145.798C145.427 150 137.194 153.147 128.031 155.24C118.853 157.333 109.458 158.372 99.8298 158.356C90.2019 158.341 80.791 157.256 71.5972 155.132C62.4034 153.008 54.1399 149.845 46.8065 145.612C37.7988 140.403 31.5507 134.449 28.0623 127.721C25.8298 123.442 24.729 119.147 24.729 114.868V83.8601C24.729 87.7206 25.6282 91.612 27.4577 95.4725C27.6437 95.8911 27.8453 96.2944 28.0623 96.713C30.4499 101.318 34.1399 105.566 39.1166 109.457C41.4112 111.256 43.9693 112.961 46.8065 114.604C51.3957 117.255 56.3414 119.488 61.6592 121.302C62.3414 121.535 63.0236 121.752 63.7213 121.969C65.7988 122.635 67.9228 123.225 70.1088 123.752C70.605 123.891 71.1011 124.015 71.5972 124.124C73.1011 124.465 74.605 124.79 76.1088 125.069C76.791 125.209 77.4887 125.333 78.1709 125.457C84.9926 126.651 91.9228 127.287 98.9771 127.333C99.2561 127.349 99.5507 127.348 99.8298 127.348C104.016 127.348 108.155 127.162 112.264 126.759C117.582 126.263 122.838 125.411 128.031 124.232C131.752 123.38 135.334 122.356 138.744 121.132C142.62 119.798 146.295 118.217 149.752 116.403C150.76 115.891 151.737 115.348 152.698 114.79Z" fill="url(#paint9_linear_7404_53467)" stroke="black" stroke-opacity="0.5" stroke-width="1.48837" stroke-linecap="round" stroke-linejoin="round"/>
<path id="Vector_11" d="M167.101 106.48V137.488L152.697 129.178V114.79L143.039 109.224C141.457 110.139 139.814 110.992 138.124 111.782V89.767L153.891 98.8677L167.101 106.48Z" fill="url(#paint10_linear_7404_53467)" stroke="black" stroke-opacity="0.5" stroke-width="1.48837" stroke-linecap="round" stroke-linejoin="round"/>
<path id="Vector_12" d="M12.961 83.9687V114.976L3.30212 109.411V78.4028L12.961 83.9687Z" fill="url(#paint11_linear_7404_53467)" stroke="black" stroke-opacity="0.5" stroke-width="1.48837" stroke-linecap="round" stroke-linejoin="round"/>
<path id="Vector_13" d="M61.0535 78.511V109.519L59.2085 110.573C58.2628 110.108 57.3171 109.596 56.4023 109.069C54.6194 108.046 52.976 106.976 51.4566 105.875V84.046L56.1386 81.3483L61.0535 78.511Z" fill="url(#paint12_linear_7404_53467)" stroke="black" stroke-opacity="0.5" stroke-width="1.48837" stroke-linecap="round" stroke-linejoin="round"/>
<path id="Vector_14" d="M152.697 114.79C151.736 115.349 150.76 115.891 149.752 116.403C146.294 118.217 142.62 119.798 138.744 121.132C135.333 122.356 131.752 123.38 128.031 124.232C122.837 125.411 117.581 126.263 112.263 126.759C108.155 127.163 104.015 127.349 99.8293 127.349C99.5502 127.349 99.2556 127.349 98.9766 127.333C91.9223 127.287 84.9921 126.651 78.1704 125.457C77.4882 125.333 76.7905 125.209 76.1084 125.07C74.6045 124.79 73.1006 124.465 71.5967 124.124C71.1006 124.015 70.6045 123.891 70.1084 123.752C67.9223 123.225 65.7983 122.635 63.7208 121.969C63.0231 121.752 62.3409 121.535 61.6587 121.302C56.3409 119.488 51.3952 117.256 46.806 114.604C43.9688 112.961 41.4107 111.256 39.1161 109.457C34.1394 105.566 30.4494 101.318 28.0618 96.7131C27.8448 96.2945 27.6432 95.8912 27.4572 95.4726C25.6277 91.6121 24.7285 87.7207 24.7285 83.8602V83.6742C24.744 81.3021 25.1006 78.93 25.7983 76.5734L12.961 83.9689L3.30212 78.403L32.0929 61.7828L46.4805 70.0929L56.1394 75.6742L60.4184 78.1393L61.0541 78.5114L56.1394 81.3486L51.4572 84.0464L49.4262 82.868L46.4805 81.178L39.5037 77.147C37.9843 81.6121 37.9688 86.1239 39.5037 90.6821C39.8603 91.7828 40.3254 92.8991 40.868 93.9999C41.9688 96.248 43.4417 98.3875 45.3022 100.418C47.0231 102.325 49.0851 104.139 51.4572 105.876C52.9766 106.976 54.62 108.046 56.4029 109.07C57.3177 109.597 58.2634 110.108 59.2091 110.574C59.8138 110.899 60.4339 111.209 61.0541 111.504C61.2556 111.597 61.4572 111.69 61.6587 111.767C62.2789 112.062 62.8991 112.341 63.5192 112.605C64.3564 112.977 65.2091 113.318 66.0774 113.643C67.3952 114.155 68.744 114.62 70.1084 115.038C72.0463 115.674 74.0463 116.232 76.1084 116.713C76.3409 116.775 76.558 116.837 76.7905 116.883C76.8215 116.899 76.868 116.899 76.8991 116.899C84.0153 118.527 91.2401 119.38 98.558 119.473C98.9611 119.488 99.3797 119.488 99.7828 119.488C103.519 119.488 107.225 119.302 110.915 118.899C111.535 118.852 112.155 118.775 112.775 118.682C116.124 118.294 119.457 117.705 122.76 116.961C125.581 116.325 128.279 115.566 130.884 114.682C131.783 114.387 132.651 114.062 133.519 113.736C134.046 113.535 134.573 113.333 135.085 113.101C136.124 112.697 137.132 112.248 138.124 111.783C139.814 110.992 141.457 110.139 143.039 109.225L152.697 114.79Z" fill="url(#paint13_linear_7404_53467)" stroke="black" stroke-opacity="0.5" stroke-width="1.48837" stroke-linecap="round" stroke-linejoin="round"/>
<path id="Vector_15" d="M137.519 67.2556V98.2634L136 99.1471V97.3796L135.969 86.806V79.2091V78.62C136.046 78.1858 136.046 77.8758 135.969 77.4572C135.969 77.3952 135.969 77.3486 135.969 77.2866C135.674 74.713 134.201 72.5269 131.535 70.713L137.535 67.2556H137.519Z" fill="url(#paint14_linear_7404_53467)" stroke="black" stroke-opacity="0.5" stroke-width="1.48837" stroke-linecap="round" stroke-linejoin="round"/>
<path id="Vector_16" d="M99.0538 96.2633C98.6817 96.5889 98.2477 96.899 97.7361 97.1936C96.7904 97.7362 95.8135 98.1548 94.8057 98.4494C94.8057 98.4494 94.7904 98.4649 94.7749 98.4649C93.364 98.899 91.8756 99.0695 90.3253 99.0075V74.0618C90.3253 75.8137 91.0229 77.7982 92.3873 80.0153C93.0384 81.054 93.8291 82.1393 94.7749 83.2866C97.9997 87.2866 99.891 90.2633 100.418 92.2323C100.837 93.7672 100.387 95.116 99.0538 96.2633Z" fill="url(#paint15_linear_7404_53467)" stroke="black" stroke-opacity="0.5" stroke-width="1.48837" stroke-linecap="round" stroke-linejoin="round"/>
<path id="Vector_17" d="M56.1388 59.0383V75.674L46.4799 70.0926V53.4724L56.1388 59.0383Z" fill="url(#paint16_linear_7404_53467)" stroke="black" stroke-opacity="0.5" stroke-width="1.48837" stroke-linecap="round" stroke-linejoin="round"/>
<path id="Vector_18" d="M112.775 94.5267V118.682C112.155 118.775 111.535 118.852 110.915 118.899C107.225 119.302 103.519 119.488 99.7826 119.488C99.3795 119.488 98.9611 119.488 98.558 119.472C91.2402 119.379 84.0153 118.527 76.8991 116.899C76.8681 116.899 76.8214 116.899 76.7904 116.883C76.5578 116.837 76.3408 116.775 76.1082 116.713V102.434C76.9454 102.759 77.7983 103.069 78.651 103.333C80.2479 103.876 81.8757 104.325 83.5191 104.697C85.7826 105.224 88.0617 105.534 90.3408 105.612C90.6198 105.643 90.8834 105.659 91.1625 105.659C93.7361 105.705 96.2943 105.457 98.8679 104.899C100.356 104.589 101.798 104.124 103.209 103.534C104.217 103.116 105.209 102.62 106.186 102.062C106.573 101.829 106.961 101.596 107.318 101.364C110.031 99.581 111.767 97.4725 112.527 95.0694C112.589 94.8833 112.635 94.6973 112.666 94.5112C112.713 94.5112 112.744 94.5112 112.775 94.5267Z" fill="url(#paint17_linear_7404_53467)" stroke="black" stroke-opacity="0.5" stroke-width="1.48837" stroke-linecap="round" stroke-linejoin="round"/>
<path id="Vector_19" d="M78.6516 83.674V94.8522C77.0702 93.5964 76.109 92.1546 75.7989 90.5577C75.3958 88.4181 76.3416 86.1236 78.6516 83.674Z" fill="url(#paint18_linear_7404_53467)" stroke="black" stroke-opacity="0.5" stroke-width="1.48837" stroke-linecap="round" stroke-linejoin="round"/>
<path id="Vector_20" d="M122.682 81.674V105.628C122.016 104.945 121.117 104.294 119.985 103.643C117.535 102.232 115.132 101.364 112.775 101.054V93.3794C112.76 90.8833 111.256 87.8291 108.248 84.1546C106.869 82.5732 105.737 81.1624 104.837 79.9376C103.613 78.2787 102.806 76.9453 102.434 75.9376C101.876 74.4337 102.326 73.1159 103.799 72.0151C104.031 71.8446 104.279 71.674 104.574 71.5035C106.651 70.2942 109.039 69.7825 111.721 69.9531C114.419 70.1081 117.163 71.0074 119.985 72.6353C120.76 73.0849 121.442 73.5345 122 73.9996C123.287 75.0539 124.016 76.1081 124.155 77.1934C124.372 78.7438 123.876 80.2322 122.682 81.674Z" fill="url(#paint19_linear_7404_53467)" stroke="black" stroke-opacity="0.5" stroke-width="1.48837" stroke-linecap="round" stroke-linejoin="round"/>
<path id="Vector_21" d="M136.016 109.318V109.38C136 110.682 135.69 111.922 135.085 113.1C134.574 113.333 134.047 113.535 133.52 113.736V84.3253C134.946 82.7439 135.768 81.0384 135.954 79.209V86.806L136 97.3795V109.318H136.016Z" fill="url(#paint20_linear_7404_53467)" stroke="black" stroke-opacity="0.5" stroke-width="1.48837" stroke-linecap="round" stroke-linejoin="round"/>
<path id="Vector_22" d="M67.891 97.4105L63.5189 99.9377V89.271C63.5344 92.0152 64.9918 94.7284 67.891 97.4105Z" fill="url(#paint21_linear_7404_53467)" stroke="black" stroke-opacity="0.5" stroke-width="1.48837" stroke-linecap="round" stroke-linejoin="round"/>
<path id="Vector_23" d="M70.1078 105.891V115.038C68.7434 114.62 67.3946 114.155 66.0767 113.643C65.2085 113.317 64.3558 112.976 63.5186 112.604C62.8985 112.341 62.2783 112.062 61.6581 111.767V101.007L63.5186 102.077L70.1078 105.891Z" fill="url(#paint22_linear_7404_53467)" stroke="black" stroke-opacity="0.5" stroke-width="1.48837" stroke-linecap="round" stroke-linejoin="round"/>
<g id="Vector_24">
<path d="M24.729 115.333V114.868Z" fill="url(#paint23_linear_7404_53467)"/>
<path d="M24.729 115.333V114.868" stroke="black" stroke-opacity="0.5" stroke-width="1.48837" stroke-linecap="round" stroke-linejoin="round"/>
</g>
<path id="Vector_25" d="M25.7975 76.573C25.0998 78.9296 24.7432 81.3018 24.7277 83.6739V108.201L12.9603 114.976V83.9685L25.7975 76.573Z" fill="url(#paint24_linear_7404_53467)" stroke="black" stroke-opacity="0.5" stroke-width="1.48837" stroke-linecap="round" stroke-linejoin="round"/>
<g id="Vector_26">
<path d="M174.403 91.1161V86.2479Z" fill="url(#paint25_linear_7404_53467)"/>
<path d="M174.403 91.1161V86.2479" stroke="black" stroke-opacity="0.5" stroke-width="1.48837" stroke-linecap="round" stroke-linejoin="round"/>
</g>
</g>
<defs>
<linearGradient id="paint0_linear_7404_53467" x1="135.968" y1="78.0388" x2="136.026" y2="78.0388" gradientUnits="userSpaceOnUse">
<stop stop-color="#6A6029"/>
<stop offset="1" stop-color="#D0BD51"/>
</linearGradient>
<linearGradient id="paint1_linear_7404_53467" x1="56.138" y1="69.9454" x2="160.818" y2="69.9454" gradientUnits="userSpaceOnUse">
<stop stop-color="#6A6029"/>
<stop offset="1" stop-color="#D0BD51"/>
</linearGradient>
<linearGradient id="paint2_linear_7404_53467" x1="61.6581" y1="84.1313" x2="137.519" y2="84.1313" gradientUnits="userSpaceOnUse">
<stop stop-color="#6A6029"/>
<stop offset="1" stop-color="#D0BD51"/>
</linearGradient>
<linearGradient id="paint3_linear_7404_53467" x1="122.682" y1="98.1782" x2="133.519" y2="98.1782" gradientUnits="userSpaceOnUse">
<stop stop-color="#6A6029"/>
<stop offset="1" stop-color="#D0BD51"/>
</linearGradient>
<linearGradient id="paint4_linear_7404_53467" x1="70.108" y1="109.573" x2="76.108" y2="109.573" gradientUnits="userSpaceOnUse">
<stop stop-color="#6A6029"/>
<stop offset="1" stop-color="#D0BD51"/>
</linearGradient>
<linearGradient id="paint5_linear_7404_53467" x1="39.5031" y1="91.5113" x2="51.4566" y2="91.5113" gradientUnits="userSpaceOnUse">
<stop stop-color="#6A6029"/>
<stop offset="1" stop-color="#D0BD51"/>
</linearGradient>
<linearGradient id="paint6_linear_7404_53467" x1="135.968" y1="81.7672" x2="174.466" y2="81.7672" gradientUnits="userSpaceOnUse">
<stop stop-color="#6A6029"/>
<stop offset="1" stop-color="#D0BD51"/>
</linearGradient>
<linearGradient id="paint7_linear_7404_53467" x1="46.4799" y1="73.6972" x2="195.874" y2="73.6972" gradientUnits="userSpaceOnUse">
<stop stop-color="#6A6029"/>
<stop offset="1" stop-color="#D0BD51"/>
</linearGradient>
<linearGradient id="paint8_linear_7404_53467" x1="167.101" y1="113.674" x2="195.876" y2="113.674" gradientUnits="userSpaceOnUse">
<stop stop-color="#6A6029"/>
<stop offset="1" stop-color="#D0BD51"/>
</linearGradient>
<linearGradient id="paint9_linear_7404_53467" x1="24.729" y1="121.108" x2="152.698" y2="121.108" gradientUnits="userSpaceOnUse">
<stop stop-color="#6A6029"/>
<stop offset="1" stop-color="#D0BD51"/>
</linearGradient>
<linearGradient id="paint10_linear_7404_53467" x1="138.124" y1="113.627" x2="167.101" y2="113.627" gradientUnits="userSpaceOnUse">
<stop stop-color="#6A6029"/>
<stop offset="1" stop-color="#D0BD51"/>
</linearGradient>
<linearGradient id="paint11_linear_7404_53467" x1="3.30212" y1="96.6897" x2="12.961" y2="96.6897" gradientUnits="userSpaceOnUse">
<stop stop-color="#6A6029"/>
<stop offset="1" stop-color="#D0BD51"/>
</linearGradient>
<linearGradient id="paint12_linear_7404_53467" x1="51.4566" y1="94.5421" x2="61.0535" y2="94.5421" gradientUnits="userSpaceOnUse">
<stop stop-color="#6A6029"/>
<stop offset="1" stop-color="#D0BD51"/>
</linearGradient>
<linearGradient id="paint13_linear_7404_53467" x1="3.30212" y1="94.5657" x2="152.697" y2="94.5657" gradientUnits="userSpaceOnUse">
<stop stop-color="#6A6029"/>
<stop offset="1" stop-color="#D0BD51"/>
</linearGradient>
<linearGradient id="paint14_linear_7404_53467" x1="131.535" y1="83.2014" x2="137.535" y2="83.2014" gradientUnits="userSpaceOnUse">
<stop stop-color="#6A6029"/>
<stop offset="1" stop-color="#D0BD51"/>
</linearGradient>
<linearGradient id="paint15_linear_7404_53467" x1="90.3253" y1="86.5408" x2="100.569" y2="86.5408" gradientUnits="userSpaceOnUse">
<stop stop-color="#6A6029"/>
<stop offset="1" stop-color="#D0BD51"/>
</linearGradient>
<linearGradient id="paint16_linear_7404_53467" x1="46.4799" y1="64.5732" x2="56.1388" y2="64.5732" gradientUnits="userSpaceOnUse">
<stop stop-color="#6A6029"/>
<stop offset="1" stop-color="#D0BD51"/>
</linearGradient>
<linearGradient id="paint17_linear_7404_53467" x1="76.1082" y1="107" x2="112.775" y2="107" gradientUnits="userSpaceOnUse">
<stop stop-color="#6A6029"/>
<stop offset="1" stop-color="#D0BD51"/>
</linearGradient>
<linearGradient id="paint18_linear_7404_53467" x1="75.7086" y1="89.2631" x2="78.6516" y2="89.2631" gradientUnits="userSpaceOnUse">
<stop stop-color="#6A6029"/>
<stop offset="1" stop-color="#D0BD51"/>
</linearGradient>
<linearGradient id="paint19_linear_7404_53467" x1="102.203" y1="87.7743" x2="124.205" y2="87.7743" gradientUnits="userSpaceOnUse">
<stop stop-color="#6A6029"/>
<stop offset="1" stop-color="#D0BD51"/>
</linearGradient>
<linearGradient id="paint20_linear_7404_53467" x1="133.52" y1="96.4725" x2="136.016" y2="96.4725" gradientUnits="userSpaceOnUse">
<stop stop-color="#6A6029"/>
<stop offset="1" stop-color="#D0BD51"/>
</linearGradient>
<linearGradient id="paint21_linear_7404_53467" x1="63.5189" y1="94.6043" x2="67.891" y2="94.6043" gradientUnits="userSpaceOnUse">
<stop stop-color="#6A6029"/>
<stop offset="1" stop-color="#D0BD51"/>
</linearGradient>
<linearGradient id="paint22_linear_7404_53467" x1="61.6581" y1="108.023" x2="70.1078" y2="108.023" gradientUnits="userSpaceOnUse">
<stop stop-color="#6A6029"/>
<stop offset="1" stop-color="#D0BD51"/>
</linearGradient>
<linearGradient id="paint23_linear_7404_53467" x1="24.729" y1="115.1" x2="25.729" y2="115.1" gradientUnits="userSpaceOnUse">
<stop stop-color="#6A6029"/>
<stop offset="1" stop-color="#D0BD51"/>
</linearGradient>
<linearGradient id="paint24_linear_7404_53467" x1="12.9603" y1="95.7746" x2="25.7975" y2="95.7746" gradientUnits="userSpaceOnUse">
<stop stop-color="#6A6029"/>
<stop offset="1" stop-color="#D0BD51"/>
</linearGradient>
<linearGradient id="paint25_linear_7404_53467" x1="174.403" y1="88.682" x2="175.403" y2="88.682" gradientUnits="userSpaceOnUse">
<stop stop-color="#6A6029"/>
<stop offset="1" stop-color="#D0BD51"/>
</linearGradient>
</defs>
</svg>
